<svg id="svg" xmlns="http://www.w3.org/2000/svg" xmlns:xlink="http://www.w3.org/1999/xlink" width="400" height="160" viewBox="0, 0, 400,160" version="1.1"><g id="svgg"><path id="path0" d="M22.333 77.486 C 22.333 99.204,22.379 117.091,22.434 117.236 C 22.525 117.472,23.452 117.500,31.184 117.500 L 39.833 117.500 39.833 101.500 L 39.833 85.500 43.397 85.500 L 46.960 85.500 47.432 86.125 C 47.691 86.469,47.962 86.775,48.035 86.806 C 48.107 86.836,48.167 86.962,48.167 87.085 C 48.167 87.208,48.354 87.457,48.583 87.637 C 48.813 87.817,49.000 88.036,49.000 88.123 C 49.000 88.211,49.156 88.463,49.348 88.683 C 49.539 88.903,49.857 89.296,50.056 89.556 C 50.254 89.816,50.510 90.129,50.625 90.252 C 50.740 90.376,50.833 90.546,50.833 90.631 C 50.833 90.717,51.021 90.927,51.250 91.100 C 51.479 91.272,51.667 91.496,51.667 91.599 C 51.667 91.701,51.835 91.973,52.042 92.204 C 52.571 92.797,52.862 93.165,53.328 93.833 C 53.551 94.154,53.869 94.538,54.034 94.686 C 54.199 94.834,54.333 95.008,54.333 95.071 C 54.333 95.178,55.298 96.482,55.514 96.667 C 55.568 96.712,55.680 96.871,55.764 97.019 C 55.940 97.330,56.799 98.435,57.167 98.824 C 57.304 98.970,57.560 99.313,57.735 99.586 C 57.909 99.860,58.153 100.143,58.276 100.217 C 58.399 100.290,58.500 100.452,58.500 100.578 C 58.500 100.703,58.557 100.831,58.626 100.861 C 58.696 100.892,59.012 101.254,59.330 101.667 C 59.648 102.079,59.949 102.454,60.000 102.500 C 60.050 102.546,60.232 102.808,60.405 103.083 C 60.578 103.358,60.820 103.643,60.943 103.717 C 61.066 103.790,61.167 103.952,61.167 104.078 C 61.167 104.203,61.223 104.331,61.293 104.361 C 61.399 104.408,61.883 104.999,62.749 106.138 C 62.841 106.260,63.123 106.590,63.375 106.871 C 63.627 107.152,63.833 107.457,63.833 107.547 C 63.833 107.638,64.021 107.886,64.250 108.098 C 64.479 108.310,64.667 108.531,64.667 108.587 C 64.667 108.644,64.760 108.788,64.875 108.908 C 64.990 109.028,65.196 109.298,65.333 109.509 C 65.471 109.719,65.790 110.115,66.042 110.387 C 66.294 110.660,66.500 110.957,66.500 111.047 C 66.500 111.138,66.688 111.386,66.917 111.598 C 67.146 111.810,67.333 112.031,67.333 112.087 C 67.333 112.144,67.427 112.295,67.542 112.423 C 68.026 112.963,68.167 113.161,68.167 113.303 C 68.167 113.386,68.354 113.594,68.583 113.766 C 68.813 113.938,69.000 114.158,69.000 114.254 C 69.000 114.433,69.562 115.156,70.375 116.023 C 70.627 116.292,70.833 116.572,70.833 116.647 C 70.833 116.721,70.973 116.944,71.145 117.141 L 71.456 117.500 81.478 117.500 C 90.772 117.500,91.500 117.480,91.500 117.219 C 91.500 116.908,90.823 115.836,90.625 115.834 C 90.556 115.834,90.500 115.733,90.500 115.611 C 90.500 115.489,90.275 115.188,90.000 114.943 C 89.725 114.698,89.500 114.413,89.500 114.309 C 89.500 114.206,89.313 113.948,89.083 113.735 C 88.854 113.523,88.667 113.277,88.667 113.189 C 88.667 113.100,88.608 113.003,88.535 112.972 C 88.463 112.942,88.145 112.582,87.827 112.172 C 87.510 111.763,87.081 111.239,86.875 111.007 C 86.669 110.776,86.500 110.533,86.500 110.468 C 86.500 110.402,86.313 110.161,86.083 109.932 C 85.854 109.703,85.665 109.455,85.662 109.383 C 85.659 109.310,85.434 109.031,85.162 108.764 C 84.890 108.497,84.667 108.212,84.667 108.131 C 84.667 108.050,84.479 107.810,84.250 107.598 C 84.021 107.386,83.833 107.139,83.833 107.050 C 83.833 106.961,83.608 106.688,83.333 106.443 C 83.058 106.198,82.833 105.913,82.833 105.809 C 82.833 105.706,82.646 105.448,82.417 105.235 C 82.188 105.023,82.000 104.803,82.000 104.746 C 82.000 104.689,81.906 104.544,81.792 104.422 C 81.677 104.301,81.396 103.962,81.167 103.670 C 80.938 103.378,80.545 102.901,80.294 102.611 C 80.044 102.321,79.837 102.030,79.836 101.966 C 79.835 101.901,79.646 101.661,79.417 101.432 C 79.188 101.203,79.000 100.955,78.999 100.883 C 78.999 100.810,78.774 100.510,78.499 100.217 C 78.225 99.924,78.000 99.633,78.000 99.570 C 78.000 99.507,77.813 99.281,77.583 99.069 C 77.354 98.856,77.167 98.617,77.167 98.536 C 77.167 98.455,76.944 98.170,76.671 97.903 C 76.399 97.635,76.174 97.329,76.171 97.222 C 76.169 97.115,76.110 97.003,76.042 96.972 C 75.894 96.907,75.058 95.915,74.583 95.243 C 74.400 94.983,74.082 94.579,73.878 94.344 C 73.218 93.587,73.167 93.516,73.167 93.364 C 73.167 93.281,72.979 93.073,72.750 92.900 C 72.521 92.728,72.333 92.499,72.333 92.390 C 72.333 92.281,72.108 91.967,71.833 91.692 C 71.558 91.417,71.333 91.139,71.333 91.074 C 71.333 91.008,71.146 90.781,70.917 90.569 C 70.688 90.356,70.500 90.117,70.500 90.036 C 70.500 89.955,70.277 89.670,70.005 89.403 C 69.732 89.135,69.507 88.855,69.505 88.781 C 69.502 88.706,69.238 88.368,68.918 88.031 C 68.598 87.693,68.336 87.366,68.335 87.304 C 68.334 87.241,68.240 87.090,68.125 86.966 C 68.010 86.843,67.657 86.406,67.340 85.996 C 67.022 85.586,66.703 85.225,66.631 85.194 C 66.559 85.164,66.500 85.038,66.500 84.915 C 66.500 84.792,66.313 84.543,66.083 84.363 C 65.854 84.183,65.667 83.985,65.667 83.922 C 65.667 83.717,66.139 83.333,66.391 83.333 C 66.527 83.333,66.664 83.273,66.694 83.199 C 66.725 83.126,67.256 82.813,67.875 82.504 C 68.494 82.196,69.000 81.881,69.000 81.805 C 69.000 81.729,69.109 81.667,69.242 81.667 C 69.375 81.667,69.543 81.571,69.617 81.454 C 69.690 81.338,69.939 81.122,70.171 80.975 C 71.142 80.359,73.697 77.934,74.501 76.864 C 74.730 76.561,75.122 76.073,75.372 75.781 C 75.623 75.489,75.829 75.156,75.831 75.042 C 75.832 74.927,75.908 74.833,76.000 74.833 C 76.092 74.833,76.167 74.726,76.167 74.595 C 76.167 74.464,76.263 74.258,76.381 74.137 C 76.635 73.877,77.167 72.779,77.167 72.516 C 77.167 72.416,77.236 72.333,77.320 72.333 C 77.404 72.333,77.526 72.095,77.590 71.803 C 77.654 71.511,77.839 71.037,78.000 70.750 C 78.161 70.463,78.349 69.970,78.416 69.655 C 78.483 69.341,78.598 69.008,78.670 68.917 C 78.743 68.825,78.856 68.375,78.922 67.917 C 78.988 67.458,79.099 67.008,79.169 66.917 C 79.697 66.223,79.693 57.080,79.165 56.417 C 79.092 56.325,78.979 55.819,78.914 55.292 C 78.848 54.765,78.735 54.333,78.662 54.333 C 78.589 54.333,78.479 54.033,78.417 53.667 C 78.355 53.300,78.236 53.000,78.152 53.000 C 78.068 53.000,78.000 52.813,78.000 52.583 C 78.000 52.354,77.925 52.167,77.833 52.167 C 77.742 52.167,77.664 52.073,77.661 51.958 C 77.658 51.844,77.510 51.450,77.333 51.083 C 77.156 50.717,77.009 50.323,77.006 50.208 C 77.003 50.094,76.925 50.000,76.833 50.000 C 76.742 50.000,76.667 49.894,76.667 49.764 C 76.667 49.634,76.610 49.503,76.542 49.472 C 76.473 49.442,76.231 49.060,76.003 48.625 C 75.776 48.190,75.532 47.833,75.462 47.833 C 75.391 47.833,75.333 47.721,75.333 47.583 C 75.333 47.446,75.263 47.333,75.178 47.333 C 75.092 47.333,74.980 47.199,74.928 47.036 C 74.844 46.770,74.461 46.319,72.848 44.583 C 72.284 43.976,70.747 42.642,70.365 42.428 C 70.212 42.342,69.960 42.155,69.805 42.011 C 69.649 41.868,69.161 41.563,68.719 41.333 C 68.278 41.104,67.892 40.860,67.861 40.792 C 67.831 40.723,67.699 40.667,67.569 40.667 C 67.440 40.667,67.333 40.592,67.333 40.500 C 67.333 40.408,67.254 40.333,67.158 40.333 C 66.978 40.333,65.649 39.784,65.127 39.494 C 64.968 39.406,64.724 39.333,64.586 39.333 C 64.447 39.333,64.333 39.265,64.333 39.181 C 64.333 39.098,64.015 38.977,63.625 38.912 C 63.235 38.848,62.836 38.731,62.738 38.652 C 62.639 38.573,62.018 38.458,61.357 38.396 C 60.697 38.335,60.117 38.220,60.068 38.142 C 60.020 38.064,51.510 38.000,41.157 38.000 L 22.333 38.000 22.333 77.486 M106.833 45.332 L 106.833 52.667 109.750 52.667 L 112.667 52.667 112.667 77.750 L 112.667 102.833 109.750 102.833 L 106.833 102.833 106.833 110.167 L 106.833 117.500 121.273 117.500 C 134.830 117.500,135.727 117.482,135.935 117.208 C 136.274 116.761,136.268 103.411,135.929 103.071 C 135.741 102.884,135.089 102.833,132.845 102.833 L 130.000 102.833 130.000 77.750 L 130.000 52.667 132.845 52.667 C 135.099 52.667,135.740 52.617,135.930 52.427 C 136.133 52.224,136.164 51.091,136.127 45.135 L 136.083 38.083 121.458 38.041 L 106.833 37.998 106.833 45.332 M151.000 45.833 L 151.000 53.667 161.000 53.667 L 171.000 53.667 171.000 85.320 C 171.000 102.729,171.046 117.091,171.101 117.236 C 171.192 117.472,172.111 117.500,179.768 117.500 L 188.333 117.500 188.333 85.583 L 188.333 53.667 198.500 53.667 L 208.667 53.667 208.667 45.833 L 208.667 38.000 179.833 38.000 L 151.000 38.000 151.000 45.833 M221.111 38.111 C 220.972 38.250,220.963 53.042,221.101 53.403 C 221.192 53.639,222.236 53.667,231.184 53.667 L 241.166 53.667 241.208 85.542 L 241.250 117.417 249.875 117.460 L 258.500 117.503 258.500 85.585 L 258.500 53.667 268.667 53.667 L 278.833 53.667 278.833 45.833 L 278.833 38.000 250.028 38.000 C 234.185 38.000,221.172 38.050,221.111 38.111 M318.333 38.416 C 318.333 38.645,318.277 38.833,318.207 38.833 C 318.062 38.833,317.735 39.542,317.575 40.208 C 317.514 40.460,317.398 40.667,317.317 40.667 C 317.237 40.667,317.123 40.967,317.064 41.333 C 317.005 41.700,316.910 42.000,316.853 42.000 C 316.725 42.000,316.393 42.748,316.241 43.375 C 316.180 43.627,316.070 43.833,315.997 43.833 C 315.923 43.833,315.812 44.133,315.750 44.500 C 315.688 44.867,315.587 45.167,315.525 45.167 C 315.407 45.167,314.833 46.396,314.833 46.649 C 314.833 46.729,314.721 47.010,314.584 47.273 C 314.447 47.535,314.335 47.881,314.334 48.042 C 314.334 48.202,314.258 48.333,314.167 48.333 C 314.075 48.333,314.000 48.483,314.000 48.667 C 314.000 48.850,313.926 49.000,313.835 49.000 C 313.745 49.000,313.623 49.300,313.564 49.667 C 313.505 50.033,313.393 50.333,313.314 50.333 C 313.235 50.333,313.123 50.633,313.064 51.000 C 313.005 51.367,312.892 51.667,312.812 51.667 C 312.732 51.667,312.667 51.779,312.667 51.917 C 312.667 52.054,312.593 52.167,312.502 52.167 C 312.411 52.167,312.289 52.467,312.231 52.833 C 312.172 53.200,312.065 53.500,311.992 53.500 C 311.919 53.500,311.811 53.724,311.750 53.998 C 311.690 54.272,311.572 54.539,311.487 54.591 C 311.403 54.644,311.333 54.832,311.333 55.010 C 311.333 55.188,311.259 55.333,311.169 55.333 C 311.078 55.333,310.956 55.633,310.897 56.000 C 310.839 56.367,310.729 56.667,310.653 56.667 C 310.577 56.667,310.466 56.929,310.406 57.250 C 310.345 57.571,310.230 57.833,310.148 57.833 C 310.067 57.833,310.000 57.937,310.000 58.064 C 310.000 58.191,309.888 58.510,309.751 58.773 C 309.614 59.035,309.502 59.381,309.501 59.542 C 309.500 59.702,309.428 59.833,309.341 59.833 C 309.253 59.833,309.133 60.096,309.072 60.417 C 309.012 60.737,308.896 61.000,308.815 61.000 C 308.733 61.000,308.667 61.101,308.667 61.224 C 308.667 61.427,308.369 62.160,308.010 62.839 C 307.936 62.979,307.823 63.336,307.758 63.630 C 307.693 63.925,307.571 64.167,307.487 64.167 C 307.402 64.167,307.333 64.354,307.333 64.583 C 307.333 64.813,307.258 65.000,307.167 65.000 C 307.075 65.000,307.000 65.094,306.999 65.208 C 306.998 65.323,306.893 65.618,306.765 65.864 C 306.636 66.110,306.481 66.541,306.419 66.822 C 306.357 67.103,306.238 67.333,306.153 67.333 C 306.069 67.333,306.000 67.521,306.000 67.750 C 306.000 67.979,305.925 68.167,305.833 68.167 C 305.742 68.167,305.666 68.260,305.666 68.375 C 305.665 68.490,305.560 68.785,305.431 69.030 C 305.303 69.276,305.148 69.708,305.086 69.989 C 305.024 70.270,304.904 70.500,304.820 70.500 C 304.736 70.500,304.667 70.688,304.667 70.917 C 304.667 71.146,304.595 71.333,304.508 71.333 C 304.420 71.333,304.299 71.596,304.239 71.917 C 304.179 72.237,304.063 72.500,303.981 72.500 C 303.900 72.500,303.832 72.631,303.830 72.792 C 303.828 72.952,303.604 73.533,303.333 74.083 C 303.062 74.633,302.839 75.215,302.837 75.375 C 302.835 75.535,302.765 75.667,302.681 75.667 C 302.598 75.667,302.479 75.967,302.417 76.333 C 302.355 76.700,302.254 77.000,302.193 77.000 C 302.060 77.000,301.729 77.736,301.575 78.375 C 301.514 78.627,301.407 78.833,301.337 78.833 C 301.267 78.833,301.161 79.133,301.103 79.500 C 301.044 79.867,300.940 80.167,300.872 80.167 C 300.728 80.167,300.401 80.879,300.241 81.542 C 300.180 81.794,300.065 82.000,299.984 82.000 C 299.903 82.000,299.789 82.300,299.731 82.667 C 299.672 83.033,299.577 83.333,299.519 83.333 C 299.392 83.333,299.059 84.082,298.908 84.708 C 298.847 84.960,298.737 85.167,298.663 85.167 C 298.590 85.167,298.479 85.467,298.417 85.833 C 298.355 86.200,298.254 86.501,298.194 86.501 C 298.069 86.503,297.670 87.307,297.661 87.575 C 297.658 87.671,297.510 88.050,297.333 88.417 C 297.156 88.783,297.009 89.215,297.006 89.375 C 297.003 89.535,296.925 89.667,296.833 89.667 C 296.742 89.667,296.667 89.817,296.667 90.000 C 296.667 90.183,296.593 90.333,296.502 90.333 C 296.411 90.333,296.289 90.633,296.231 91.000 C 296.172 91.367,296.060 91.667,295.981 91.667 C 295.902 91.667,295.789 91.967,295.731 92.333 C 295.672 92.700,295.559 93.000,295.479 93.000 C 295.399 93.000,295.333 93.112,295.333 93.250 C 295.333 93.388,295.259 93.500,295.169 93.500 C 295.078 93.500,294.956 93.800,294.897 94.167 C 294.839 94.533,294.729 94.833,294.653 94.833 C 294.577 94.833,294.463 95.115,294.400 95.458 C 294.337 95.802,294.240 96.121,294.184 96.167 C 293.946 96.364,293.500 97.330,293.500 97.651 C 293.500 97.843,293.428 98.000,293.341 98.000 C 293.253 98.000,293.130 98.281,293.067 98.625 C 293.004 98.969,292.903 99.287,292.842 99.333 C 292.660 99.472,292.167 100.615,292.167 100.900 C 292.167 101.047,292.095 101.167,292.008 101.167 C 291.920 101.167,291.799 101.429,291.739 101.750 C 291.679 102.071,291.563 102.333,291.481 102.333 C 291.400 102.333,291.333 102.437,291.333 102.564 C 291.333 102.691,291.221 103.010,291.084 103.273 C 290.947 103.535,290.835 103.881,290.834 104.042 C 290.834 104.202,290.767 104.333,290.685 104.333 C 290.604 104.333,290.488 104.596,290.428 104.917 C 290.367 105.237,290.247 105.500,290.159 105.500 C 290.072 105.500,290.000 105.688,290.000 105.917 C 290.000 106.146,289.926 106.333,289.835 106.333 C 289.745 106.333,289.623 106.633,289.564 107.000 C 289.505 107.367,289.398 107.667,289.325 107.667 C 289.253 107.667,289.144 107.892,289.083 108.167 C 289.023 108.442,288.904 108.667,288.820 108.667 C 288.736 108.667,288.667 108.854,288.667 109.083 C 288.667 109.313,288.592 109.500,288.500 109.500 C 288.408 109.500,288.333 109.594,288.332 109.708 C 288.332 109.823,288.226 110.118,288.098 110.364 C 287.970 110.610,287.814 111.041,287.752 111.322 C 287.691 111.603,287.571 111.833,287.487 111.833 C 287.402 111.833,287.333 112.021,287.333 112.250 C 287.333 112.479,287.262 112.667,287.174 112.667 C 287.087 112.667,286.966 112.929,286.906 113.250 C 286.845 113.571,286.730 113.833,286.648 113.833 C 286.567 113.833,286.500 113.965,286.499 114.125 C 286.498 114.285,286.386 114.631,286.249 114.894 C 286.112 115.157,286.000 115.475,286.000 115.602 C 286.000 115.729,285.928 115.833,285.841 115.833 C 285.753 115.833,285.633 116.096,285.572 116.417 C 285.512 116.737,285.405 117.000,285.333 117.000 C 285.262 117.000,285.151 117.281,285.087 117.625 C 285.022 117.968,284.909 118.287,284.835 118.333 C 284.761 118.379,284.675 118.604,284.642 118.833 L 284.583 119.250 299.917 119.250 L 315.250 119.250 315.303 118.875 C 315.333 118.669,315.425 118.500,315.510 118.500 C 315.594 118.500,315.711 118.200,315.769 117.833 C 315.828 117.467,315.940 117.167,316.019 117.167 C 316.098 117.167,316.211 116.867,316.269 116.500 C 316.328 116.133,316.441 115.833,316.521 115.833 C 316.601 115.833,316.667 115.721,316.667 115.583 C 316.667 115.446,316.741 115.333,316.831 115.333 C 316.922 115.333,317.044 115.033,317.103 114.667 C 317.161 114.300,317.271 114.000,317.347 114.000 C 317.423 114.000,317.537 113.719,317.600 113.375 C 317.663 113.031,317.764 112.712,317.824 112.667 C 318.007 112.528,318.500 111.385,318.500 111.100 C 318.500 110.953,318.568 110.833,318.652 110.833 C 318.736 110.833,318.855 110.533,318.917 110.167 C 318.979 109.800,319.079 109.499,319.140 109.499 C 319.264 109.497,319.664 108.693,319.672 108.425 C 319.675 108.329,319.823 107.950,320.000 107.583 C 320.177 107.217,320.325 106.785,320.328 106.625 C 320.331 106.465,320.408 106.333,320.500 106.333 C 320.592 106.333,320.667 106.183,320.667 106.000 C 320.667 105.817,320.735 105.667,320.819 105.667 C 320.902 105.667,321.021 105.367,321.083 105.000 C 321.145 104.633,321.263 104.333,321.346 104.333 C 321.429 104.333,321.544 104.033,321.603 103.667 C 321.661 103.300,321.756 103.000,321.814 103.000 C 321.941 103.000,322.274 102.252,322.425 101.625 C 322.486 101.373,322.593 101.167,322.663 101.167 C 322.733 101.167,322.839 100.867,322.897 100.500 C 322.956 100.133,323.060 99.833,323.128 99.833 C 323.272 99.833,323.599 99.121,323.759 98.458 C 323.820 98.206,323.927 98.000,323.997 98.000 C 324.067 98.000,324.172 97.700,324.231 97.333 C 324.289 96.967,324.397 96.667,324.469 96.667 C 324.542 96.667,324.739 96.273,324.908 95.792 C 325.078 95.310,325.271 94.842,325.339 94.750 C 325.406 94.658,325.514 94.340,325.577 94.042 C 325.641 93.744,325.762 93.500,325.847 93.500 C 325.931 93.500,326.000 93.396,326.000 93.269 C 326.000 93.142,326.112 92.823,326.249 92.561 C 326.386 92.298,326.498 91.952,326.499 91.792 C 326.500 91.631,326.575 91.500,326.667 91.500 C 326.758 91.500,326.834 91.369,326.834 91.208 C 326.835 91.048,326.947 90.702,327.084 90.439 C 327.221 90.177,327.333 89.858,327.333 89.731 C 327.333 89.604,327.405 89.500,327.492 89.500 C 327.580 89.500,327.701 89.237,327.761 88.917 C 327.821 88.596,327.930 88.333,328.004 88.333 C 328.077 88.333,328.188 88.033,328.250 87.667 C 328.312 87.300,328.431 87.000,328.515 87.000 C 328.598 87.000,328.667 86.899,328.667 86.776 C 328.667 86.573,328.965 85.840,329.323 85.161 C 329.397 85.021,329.511 84.664,329.575 84.370 C 329.640 84.075,329.762 83.833,329.847 83.833 C 329.931 83.833,330.000 83.646,330.000 83.417 C 330.000 83.188,330.074 83.000,330.165 83.000 C 330.255 83.000,330.377 82.700,330.436 82.333 C 330.495 81.967,330.602 81.667,330.675 81.667 C 330.747 81.667,330.856 81.442,330.917 81.167 C 330.977 80.892,331.096 80.667,331.180 80.667 C 331.264 80.667,331.333 80.479,331.333 80.250 C 331.333 80.021,331.408 79.833,331.500 79.833 C 331.592 79.833,331.667 79.712,331.667 79.563 C 331.667 79.341,331.712 79.330,331.917 79.500 C 332.054 79.614,332.167 79.830,332.168 79.979 C 332.168 80.128,332.281 80.465,332.418 80.727 C 332.555 80.990,332.667 81.309,332.667 81.436 C 332.667 81.563,332.735 81.667,332.819 81.667 C 332.902 81.667,333.021 81.967,333.083 82.333 C 333.145 82.700,333.256 83.000,333.329 83.000 C 333.403 83.000,333.512 83.262,333.572 83.583 C 333.633 83.904,333.753 84.167,333.841 84.167 C 333.928 84.167,334.000 84.271,334.000 84.398 C 334.000 84.525,334.112 84.843,334.249 85.106 C 334.386 85.369,334.498 85.710,334.499 85.865 C 334.500 86.020,334.567 86.188,334.648 86.239 C 334.730 86.289,334.846 86.537,334.908 86.790 C 335.059 87.418,335.392 88.167,335.519 88.167 C 335.577 88.167,335.672 88.467,335.731 88.833 C 335.789 89.200,335.911 89.500,336.002 89.500 C 336.093 89.500,336.167 89.620,336.167 89.766 C 336.167 89.913,336.279 90.288,336.417 90.600 C 336.554 90.912,336.779 91.422,336.917 91.734 C 337.054 92.045,337.167 92.420,337.167 92.567 C 337.167 92.713,337.242 92.833,337.333 92.833 C 337.425 92.833,337.500 92.965,337.501 93.125 C 337.502 93.285,337.614 93.631,337.751 93.894 C 337.888 94.157,338.000 94.475,338.000 94.602 C 338.000 94.729,338.068 94.833,338.152 94.833 C 338.236 94.833,338.355 95.133,338.417 95.500 C 338.479 95.867,338.590 96.167,338.663 96.167 C 338.737 96.167,338.847 96.373,338.908 96.625 C 339.059 97.252,339.392 98.000,339.519 98.000 C 339.577 98.000,339.672 98.300,339.731 98.667 C 339.789 99.033,339.902 99.333,339.981 99.333 C 340.060 99.333,340.172 99.633,340.231 100.000 C 340.289 100.367,340.411 100.667,340.502 100.667 C 340.593 100.667,340.667 100.854,340.667 101.083 C 340.667 101.313,340.736 101.500,340.820 101.500 C 340.904 101.500,341.024 101.730,341.086 102.011 C 341.148 102.292,341.303 102.724,341.431 102.970 C 341.560 103.215,341.665 103.511,341.666 103.627 C 341.667 103.843,342.003 104.517,342.184 104.667 C 342.240 104.712,342.337 105.031,342.400 105.375 C 342.463 105.719,342.577 106.000,342.653 106.000 C 342.729 106.000,342.839 106.300,342.897 106.667 C 342.956 107.033,343.078 107.333,343.169 107.333 C 343.259 107.333,343.333 107.437,343.333 107.564 C 343.333 107.691,343.445 108.010,343.582 108.273 C 343.719 108.535,343.832 108.866,343.832 109.008 C 343.833 109.150,343.898 109.338,343.977 109.425 C 344.056 109.512,344.258 109.977,344.426 110.458 C 344.595 110.940,344.792 111.333,344.864 111.333 C 344.937 111.333,345.044 111.633,345.103 112.000 C 345.161 112.367,345.267 112.667,345.337 112.667 C 345.407 112.667,345.514 112.873,345.575 113.125 C 345.726 113.752,346.059 114.500,346.186 114.500 C 346.244 114.500,346.339 114.800,346.397 115.167 C 346.456 115.533,346.568 115.833,346.647 115.833 C 346.726 115.833,346.839 116.133,346.897 116.500 C 346.956 116.867,347.078 117.167,347.169 117.167 C 347.259 117.167,347.333 117.354,347.333 117.583 C 347.333 117.813,347.407 118.000,347.498 118.000 C 347.589 118.000,347.711 118.300,347.769 118.667 L 347.876 119.333 364.438 119.333 L 381.000 119.333 381.000 118.833 C 381.000 118.558,380.925 118.333,380.833 118.333 C 380.742 118.333,380.667 118.183,380.667 118.000 C 380.667 117.817,380.592 117.667,380.500 117.667 C 380.408 117.667,380.331 117.535,380.328 117.375 C 380.325 117.215,380.177 116.783,380.000 116.417 C 379.823 116.050,379.675 115.671,379.672 115.575 C 379.664 115.307,379.264 114.503,379.140 114.501 C 379.079 114.501,378.979 114.200,378.917 113.833 C 378.855 113.467,378.751 113.167,378.687 113.167 C 378.622 113.167,378.429 112.754,378.257 112.250 C 378.086 111.746,377.884 111.333,377.808 111.333 C 377.733 111.333,377.623 111.033,377.564 110.667 C 377.505 110.300,377.408 110.000,377.347 110.000 C 377.286 110.000,377.095 109.587,376.924 109.083 C 376.753 108.579,376.551 108.167,376.475 108.167 C 376.399 108.167,376.289 107.867,376.231 107.500 C 376.172 107.133,376.067 106.833,375.997 106.833 C 375.927 106.833,375.820 106.627,375.759 106.375 C 375.604 105.736,375.274 105.000,375.141 105.000 C 375.079 105.000,374.979 104.700,374.917 104.333 C 374.855 103.967,374.744 103.667,374.671 103.667 C 374.597 103.667,374.488 103.404,374.428 103.083 C 374.367 102.763,374.247 102.500,374.159 102.500 C 374.072 102.500,374.000 102.396,374.000 102.269 C 374.000 102.142,373.888 101.823,373.751 101.561 C 373.614 101.298,373.502 100.952,373.501 100.792 C 373.500 100.631,373.433 100.500,373.352 100.500 C 373.270 100.500,373.155 100.237,373.094 99.917 C 373.034 99.596,372.913 99.333,372.826 99.333 C 372.738 99.333,372.667 99.146,372.667 98.917 C 372.667 98.688,372.598 98.500,372.513 98.500 C 372.429 98.500,372.309 98.270,372.248 97.989 C 372.186 97.708,372.030 97.276,371.902 97.030 C 371.774 96.785,371.668 96.490,371.668 96.375 C 371.667 96.260,371.592 96.167,371.500 96.167 C 371.408 96.167,371.333 95.979,371.333 95.750 C 371.333 95.521,371.264 95.333,371.180 95.333 C 371.096 95.333,370.976 95.103,370.914 94.822 C 370.852 94.541,370.697 94.110,370.569 93.864 C 370.440 93.618,370.335 93.323,370.334 93.208 C 370.334 93.094,370.258 93.000,370.167 93.000 C 370.075 93.000,370.000 92.813,370.000 92.583 C 370.000 92.354,369.928 92.167,369.841 92.167 C 369.753 92.167,369.633 91.904,369.572 91.583 C 369.512 91.263,369.396 91.000,369.315 91.000 C 369.233 91.000,369.166 90.869,369.166 90.708 C 369.165 90.548,369.053 90.202,368.916 89.939 C 368.779 89.677,368.667 89.358,368.667 89.231 C 368.667 89.104,368.600 89.000,368.519 89.000 C 368.437 89.000,368.321 88.737,368.261 88.417 C 368.201 88.096,368.080 87.833,367.992 87.833 C 367.905 87.833,367.833 87.702,367.832 87.542 C 367.832 87.381,367.719 87.035,367.582 86.773 C 367.445 86.510,367.333 86.191,367.333 86.064 C 367.333 85.937,367.267 85.833,367.185 85.833 C 367.104 85.833,366.988 85.571,366.928 85.250 C 366.867 84.929,366.756 84.667,366.680 84.667 C 366.605 84.667,366.495 84.367,366.436 84.000 C 366.377 83.633,366.255 83.333,366.165 83.333 C 366.074 83.333,366.000 83.221,366.000 83.083 C 366.000 82.946,365.935 82.833,365.855 82.833 C 365.775 82.833,365.661 82.533,365.603 82.167 C 365.544 81.800,365.432 81.500,365.353 81.500 C 365.274 81.500,365.161 81.200,365.103 80.833 C 365.044 80.467,364.922 80.167,364.831 80.167 C 364.741 80.167,364.667 80.054,364.667 79.917 C 364.667 79.779,364.601 79.667,364.521 79.667 C 364.441 79.667,364.328 79.367,364.269 79.000 C 364.211 78.633,364.098 78.333,364.019 78.333 C 363.940 78.333,363.828 78.033,363.769 77.667 C 363.711 77.300,363.589 77.000,363.498 77.000 C 363.407 77.000,363.333 76.850,363.333 76.667 C 363.333 76.483,363.258 76.333,363.167 76.333 C 363.075 76.333,363.000 76.202,362.999 76.042 C 362.998 75.881,362.886 75.535,362.749 75.273 C 362.612 75.010,362.500 74.729,362.500 74.649 C 362.500 74.396,361.927 73.167,361.809 73.167 C 361.747 73.167,361.645 72.867,361.583 72.500 C 361.521 72.133,361.410 71.833,361.337 71.833 C 361.263 71.833,361.153 71.627,361.092 71.375 C 360.941 70.748,360.608 70.000,360.481 70.000 C 360.423 70.000,360.328 69.700,360.269 69.333 C 360.211 68.967,360.097 68.667,360.016 68.667 C 359.935 68.667,359.820 68.460,359.759 68.208 C 359.607 67.582,359.275 66.833,359.147 66.833 C 359.090 66.833,358.995 66.533,358.936 66.167 C 358.877 65.800,358.763 65.500,358.683 65.500 C 358.602 65.500,358.486 65.294,358.425 65.042 C 358.271 64.402,357.940 63.667,357.807 63.667 C 357.746 63.667,357.645 63.367,357.583 63.000 C 357.521 62.633,357.402 62.333,357.319 62.333 C 357.235 62.333,357.165 62.202,357.163 62.042 C 357.161 61.881,356.938 61.300,356.667 60.750 C 356.396 60.200,356.172 59.668,356.170 59.567 C 356.167 59.393,355.820 58.574,355.489 57.961 C 355.404 57.801,355.333 57.558,355.333 57.419 C 355.333 57.280,355.264 57.167,355.180 57.167 C 355.096 57.167,354.976 56.937,354.914 56.655 C 354.852 56.374,354.697 55.943,354.569 55.697 C 354.440 55.451,354.335 55.156,354.334 55.042 C 354.334 54.927,354.258 54.833,354.167 54.833 C 354.075 54.833,354.000 54.646,354.000 54.417 C 354.000 54.188,353.931 54.000,353.847 54.000 C 353.762 54.000,353.643 53.770,353.581 53.489 C 353.519 53.208,353.364 52.776,353.235 52.530 C 353.107 52.285,353.002 51.990,353.001 51.875 C 353.000 51.760,352.925 51.667,352.833 51.667 C 352.742 51.667,352.667 51.479,352.667 51.250 C 352.667 51.021,352.598 50.833,352.513 50.833 C 352.429 50.833,352.310 50.608,352.250 50.332 C 352.146 49.861,351.847 49.124,351.489 48.461 C 351.404 48.301,351.333 48.058,351.333 47.919 C 351.333 47.780,351.267 47.667,351.185 47.667 C 351.104 47.667,350.988 47.404,350.928 47.083 C 350.867 46.762,350.747 46.500,350.659 46.500 C 350.572 46.500,350.500 46.380,350.500 46.234 C 350.500 46.087,350.396 45.731,350.270 45.442 C 350.143 45.153,349.918 44.643,349.770 44.308 C 349.621 43.973,349.500 43.617,349.500 43.516 C 349.500 43.416,349.435 43.333,349.355 43.333 C 349.275 43.333,349.161 43.033,349.103 42.667 C 349.044 42.300,348.922 42.000,348.831 42.000 C 348.741 42.000,348.667 41.854,348.667 41.677 C 348.667 41.499,348.597 41.310,348.513 41.258 C 348.428 41.206,348.310 40.939,348.250 40.665 C 348.189 40.391,348.081 40.167,348.008 40.167 C 347.935 40.167,347.828 39.867,347.769 39.500 C 347.711 39.133,347.594 38.833,347.510 38.833 C 347.425 38.833,347.333 38.665,347.303 38.458 L 347.250 38.083 332.792 38.041 L 318.333 37.998 318.333 38.416 M55.333 53.833 C 55.333 53.925,55.629 54.000,55.990 54.000 C 56.351 54.000,56.688 54.066,56.738 54.148 C 56.789 54.229,57.093 54.345,57.415 54.405 C 57.737 54.466,58.000 54.582,58.000 54.663 C 58.000 54.744,58.158 54.861,58.351 54.922 C 59.144 55.174,61.167 57.232,61.167 57.786 C 61.167 57.904,61.238 58.000,61.326 58.000 C 61.413 58.000,61.534 58.263,61.595 58.585 C 61.655 58.907,61.771 59.211,61.852 59.262 C 61.934 59.312,62.000 59.536,62.000 59.760 C 62.000 59.984,62.075 60.167,62.167 60.167 C 62.265 60.167,62.333 60.747,62.333 61.573 C 62.333 62.347,62.258 63.027,62.167 63.083 C 62.075 63.140,62.000 63.407,62.000 63.677 C 62.000 63.946,61.925 64.167,61.833 64.167 C 61.742 64.167,61.667 64.290,61.667 64.440 C 61.667 65.722,58.658 68.820,57.133 69.109 C 56.831 69.167,56.478 69.297,56.350 69.398 C 56.188 69.526,53.605 69.601,47.975 69.640 L 39.833 69.696 39.833 61.681 L 39.833 53.667 47.583 53.667 C 52.639 53.667,55.333 53.725,55.333 53.833 " stroke="none" fill="#1cbc9c" fill-rule="evenodd"></path><path id="path1" d="" stroke="none" fill="#20bc9c" fill-rule="evenodd"></path><path id="path2" d="" stroke="none" fill="#20bc9c" fill-rule="evenodd"></path><path id="path3" d="" stroke="none" fill="#20bc9c" fill-rule="evenodd"></path><path id="path4" d="" stroke="none" fill="#20bc9c" fill-rule="evenodd"></path></g></svg>